<svg width="1440" height="810" viewBox="0 0 1440 810" xmlns="http://www.w3.org/2000/svg" fill="none">
  <rect width="1440" height="810" rx="24" fill="#F8FAFC"/>
  <rect x="80" y="80" width="1280" height="650" rx="16" fill="#FFFFFF" stroke="#E2E8F0"/>
  
  <!-- Error banner -->
  <rect x="140" y="130" width="1160" height="80" rx="12" fill="#FEF2F2" stroke="#FECACA"/>
  <circle cx="180" cy="170" r="12" fill="#EF4444"/>
  <text x="210" y="160" fill="#DC2626" font-family="Inter, ui-sans-serif" font-size="18" font-weight="600">Step failed: restart nginx</text>
  <text x="210" y="185" fill="#7F1D1D" font-family="IBM Plex Mono, ui-monospace" font-size="14">systemctl restart nginx → exit code 1</text>

  <!-- Left panel - Suggestions -->
  <rect x="140" y="250" width="560" height="420" rx="12" fill="#F9FAFB" stroke="#E5E7EB"/>
  <text x="170" y="285" fill="#374151" font-family="Inter, ui-sans-serif" font-size="18" font-weight="600">💡 Suggested Fix</text>
  
  <g font-family="Inter, ui-sans-serif" font-size="15" fill="#4B5563">
    <circle cx="185" cy="320" r="3" fill="#6B7280"/>
    <text x="200" y="325">Check nginx config syntax</text>
    
    <circle cx="185" cy="355" r="3" fill="#6B7280"/>
    <text x="200" y="360">Validate ports 80/443 availability</text>
    
    <circle cx="185" cy="390" r="3" fill="#6B7280"/>
    <text x="200" y="395">Inspect recent changes to server blocks</text>
    
    <circle cx="185" cy="425" r="3" fill="#6B7280"/>
    <text x="200" y="430">Try: nginx -t && systemctl start nginx</text>
  </g>
  
  <!-- Diagnostic output -->
  <rect x="170" y="460" width="500" height="180" rx="8" fill="#1F2937" stroke="#374151"/>
  <g font-family="IBM Plex Mono, ui-monospace" font-size="13" fill="#E5E7EB">
    <text x="190" y="485">$ nginx -t</text>
    <text x="190" y="510">nginx: [emerg] bind() to 0.0.0.0:443 failed</text>
    <text x="190" y="535">nginx: [emerg] (98: Address already in use)</text>
    <text x="190" y="560">nginx: configuration file /etc/nginx/nginx.conf test failed</text>
    <text x="190" y="585">→ Port 443 is already bound</text>
  </g>

  <!-- Right panel - Actions -->
  <rect x="740" y="250" width="560" height="420" rx="12" fill="#F9FAFB" stroke="#E5E7EB"/>
  <text x="770" y="285" fill="#374151" font-family="Inter, ui-sans-serif" font-size="18" font-weight="600">⚡ Quick Actions</text>
  
  <rect x="770" y="310" width="500" height="50" rx="8" fill="#3B82F6" stroke="#2563EB"/>
  <text x="1020" y="340" text-anchor="middle" fill="white" font-family="Inter, ui-sans-serif" font-size="14" font-weight="600">Retry with validation</text>
  
  <rect x="770" y="380" width="500" height="50" rx="8" fill="#F3F4F6" stroke="#D1D5DB"/>
  <text x="1020" y="410" text-anchor="middle" fill="#374151" font-family="Inter, ui-sans-serif" font-size="14" font-weight="600">Open diagnostics</text>
  
  <rect x="770" y="450" width="500" height="50" rx="8" fill="#F3F4F6" stroke="#D1D5DB"/>
  <text x="1020" y="480" text-anchor="middle" fill="#374151" font-family="Inter, ui-sans-serif" font-size="14" font-weight="600">View full logs</text>
  
  <!-- Health check indicator -->
  <rect x="770" y="530" width="500" height="100" rx="8" fill="#ECFDF5" stroke="#A7F3D0"/>
  <text x="790" y="555" fill="#059669" font-family="Inter, ui-sans-serif" font-size="14" font-weight="600">✓ Health checks running</text>
  <text x="790" y="580" fill="#065F46" font-family="Inter, ui-sans-serif" font-size="13">Monitoring system state...</text>
  <text x="790" y="605" fill="#065F46" font-family="Inter, ui-sans-serif" font-size="13">Will auto-retry when ports are free</text>
</svg>
