<svg width="1440" height="810" viewBox="0 0 1440 810" xmlns="http://www.w3.org/2000/svg" fill="none">
  <rect width="1440" height="810" rx="24" fill="#F8FAFC"/>
  <rect x="80" y="80" width="1280" height="650" rx="16" fill="#FFFFFF" stroke="#E2E8F0"/>
  
  <!-- Header -->
  <rect x="120" y="120" width="1200" height="60" rx="12" fill="#F9FAFB" stroke="#E5E7EB"/>
  <text x="150" y="155" fill="#1F2937" font-family="Inter, ui-sans-serif" font-size="24" font-weight="700">📋 Audit Log</text>
  
  <!-- Log entries -->
  <rect x="120" y="200" width="1200" height="80" rx="10" fill="#ECFDF5" stroke="#A7F3D0"/>
  <circle cx="160" cy="240" r="8" fill="#10B981"/>
  <text x="180" y="225" fill="#065F46" font-family="Inter, ui-sans-serif" font-size="14" font-weight="600">2025-08-24 21:49:12</text>
  <text x="180" y="245" fill="#374151" font-family="Inter, ui-sans-serif" font-size="16">apt-get install nginx</text>
  <text x="180" y="265" fill="#6B7280" font-family="Inter, ui-sans-serif" font-size="14">Risk: 3/10 • Status: Approved • Duration: 45s</text>
  
  <rect x="120" y="290" width="1200" height="80" rx="10" fill="#EFF6FF" stroke="#DBEAFE"/>
  <circle cx="160" cy="330" r="8" fill="#3B82F6"/>
  <text x="180" y="315" fill="#1E40AF" font-family="Inter, ui-sans-serif" font-size="14" font-weight="600">2025-08-24 21:52:07</text>
  <text x="180" y="335" fill="#374151" font-family="Inter, ui-sans-serif" font-size="16">ufw allow 443/tcp</text>
  <text x="180" y="355" fill="#6B7280" font-family="Inter, ui-sans-serif" font-size="14">Risk: 2/10 • Status: Auto-approved • Duration: 2s</text>
  
  <rect x="120" y="380" width="1200" height="80" rx="10" fill="#FEF3C7" stroke="#FDE68A"/>
  <circle cx="160" cy="420" r="8" fill="#F59E0B"/>
  <text x="180" y="405" fill="#92400E" font-family="Inter, ui-sans-serif" font-size="14" font-weight="600">2025-08-24 21:54:33</text>
  <text x="180" y="425" fill="#374151" font-family="Inter, ui-sans-serif" font-size="16">certbot --nginx -d example.com</text>
  <text x="180" y="445" fill="#6B7280" font-family="Inter, ui-sans-serif" font-size="14">Risk: 4/10 • Status: Approved • Duration: 2m 15s</text>
  
  <rect x="120" y="470" width="1200" height="80" rx="10" fill="#ECFDF5" stroke="#A7F3D0"/>
  <circle cx="160" cy="510" r="8" fill="#10B981"/>
  <text x="180" y="495" fill="#065F46" font-family="Inter, ui-sans-serif" font-size="14" font-weight="600">2025-08-24 22:01:18</text>
  <text x="180" y="515" fill="#374151" font-family="Inter, ui-sans-serif" font-size="16">systemctl restart nginx</text>
  <text x="180" y="535" fill="#6B7280" font-family="Inter, ui-sans-serif" font-size="14">Risk: 3/10 • Status: Success • Duration: 3s</text>
  
  <!-- Summary footer -->
  <rect x="120" y="570" width="1200" height="60" rx="10" fill="#F3F4F6" stroke="#D1D5DB"/>
  <text x="150" y="595" fill="#374151" font-family="Inter, ui-sans-serif" font-size="14" font-weight="600">4 commands executed • 0 failures • Average risk: 3/10</text>
  <text x="150" y="615" fill="#6B7280" font-family="Inter, ui-sans-serif" font-size="13">All actions logged with timestamps, risk scores, and execution results for compliance</text>
</svg>
