<svg width="1440" height="810" viewBox="0 0 1440 810" xmlns="http://www.w3.org/2000/svg" fill="none">
  <rect width="1440" height="810" rx="24" fill="#F8FAFC"/>
  <rect x="80" y="80" width="1280" height="650" rx="16" fill="#FFFFFF" stroke="#E2E8F0"/>
  
  <!-- System info panel -->
  <rect x="140" y="130" width="400" height="520" rx="16" fill="#F9FAFB" stroke="#E5E7EB"/>
  <text x="170" y="165" fill="#1F2937" font-family="Inter, ui-sans-serif" font-size="20" font-weight="700">🖥️ System Context</text>
  
  <g font-family="Inter, ui-sans-serif" font-size="15" fill="#374151">
    <circle cx="180" cy="205" r="4" fill="#10B981"/>
    <text x="195" y="210">Distro: Ubuntu 22.04 (jammy)</text>
    
    <circle cx="180" cy="240" r="4" fill="#10B981"/>
    <text x="195" y="245">Package manager: apt</text>
    
    <circle cx="180" cy="275" r="4" fill="#10B981"/>
    <text x="195" y="280">Service manager: systemd</text>
    
    <circle cx="180" cy="310" r="4" fill="#EF4444"/>
    <text x="195" y="315">SELinux: disabled</text>
    
    <circle cx="180" cy="345" r="4" fill="#10B981"/>
    <text x="195" y="350">AppArmor: enforcing</text>
    
    <circle cx="180" cy="380" r="4" fill="#10B981"/>
    <text x="195" y="385">CPU architecture: x86_64</text>
    
    <circle cx="180" cy="415" r="4" fill="#F59E0B"/>
    <text x="195" y="420">Open ports: 22, 80</text>
    
    <circle cx="180" cy="450" r="4" fill="#10B981"/>
    <text x="195" y="455">Users: ubuntu, root</text>
    
    <circle cx="180" cy="485" r="4" fill="#10B981"/>
    <text x="195" y="490">Disk usage: 42%</text>
  </g>
  
  <!-- Detection log -->
  <rect x="580" y="130" width="720" height="200" rx="16" fill="#1F2937" stroke="#374151"/>
  <rect x="600" y="150" width="680" height="30" rx="8" fill="#374151"/>
  <circle cx="620" cy="165" r="6" fill="#EF4444"/>
  <circle cx="640" cy="165" r="6" fill="#F59E0B"/>
  <circle cx="660" cy="165" r="6" fill="#10B981"/>
  <text x="690" y="170" fill="#9CA3AF" font-family="Inter, ui-sans-serif" font-size="14">Detection Log</text>
  
  <g font-family="IBM Plex Mono, ui-monospace" font-size="14" fill="#E5E7EB">
    <text x="620" y="210">$ detect-system</text>
    <text x="620" y="235">→ distro: ubuntu 22.04 • pkg: apt • svc: systemd</text>
    <text x="620" y="260">→ apparmor: enforcing • selinux: disabled</text>
    <text x="620" y="285">✓ System profile complete</text>
  </g>
  
  <!-- Recommendations -->
  <rect x="580" y="370" width="720" height="280" rx="16" fill="#F9FAFB" stroke="#E5E7EB"/>
  <text x="610" y="405" fill="#1F2937" font-family="Inter, ui-sans-serif" font-size="18" font-weight="600">💡 Recommended Actions</text>
  
  <rect x="610" y="430" width="660" height="50" rx="8" fill="#DBEAFE" stroke="#93C5FD"/>
  <text x="630" y="460" fill="#1E40AF" font-family="Inter, ui-sans-serif" font-size="14">Use apt-get with noninteractive flags; configure ufw; enable systemd services</text>
  
  <rect x="610" y="490" width="660" height="50" rx="8" fill="#DBEAFE" stroke="#93C5FD"/>
  <text x="630" y="520" fill="#1E40AF" font-family="Inter, ui-sans-serif" font-size="14">Issue Let's Encrypt certificates via certbot, auto-renew timer</text>
  
  <rect x="610" y="550" width="660" height="50" rx="8" fill="#DBEAFE" stroke="#93C5FD"/>
  <text x="630" y="580" fill="#1E40AF" font-family="Inter, ui-sans-serif" font-size="14">Harden sshd: disable password auth, restrict root login</text>
</svg>
